# xmcd CD database file
#
# Track frame offsets:
#	150
#	14816
#	33967
#	52912
#	70120
#	86999
#	107081
#	118663
#	134564
#	151738
#	167290
#
# Disc length: 2483 seconds
#
# Revision: 0
# Processed by: cddbd v1.5.2PL0 Copyright (c) Steve Scherf et al.
# Submitted via: CDex 1.70beta2
#
DISCID=8b09b10b
DTITLE=Sawmill Road [CDN-12-cty) - Cryin', Lovin' and Drinkin'
DYEAR=2012
DGENRE=Country
TTITLE0=Whiskey Burn
TTITLE1=Jesus and Jim Beam
TTITLE2=A Seed
TTITLE3=I Didn't Know a Thing (About Love)
TTITLE4=The Man I Can Be
TTITLE5=Please Let Me Go
TTITLE6=The Sun Will Shine Again
TTITLE7=It's Only Love
TTITLE8=Chase's Song (While You Wish on a Star)
TTITLE9=A Little Piece of Heaven
TTITLE10=It Ain't Right
EXTD=YEAR: 2012
EXTT0=
EXTT1=
EXTT2=
EXTT3=
EXTT4=
EXTT5=
EXTT6=
EXTT7=
EXTT8=
EXTT9=
EXTT10=
PLAYORDER=
